<svg xmlns="http://www.w3.org/2000/svg" xmlns:graphite="https://graphite.art" viewBox="0 0 128 128" width="128" height="128"><defs><clipPath id="artboard-9473606804393089583"><rect x="0" y="0" width="128" height="128" /></clipPath></defs><g transform="matrix(1,0,0,1,0,0)">
<rect fill="#ffffff" fill-opacity="0" x="0" y="0" width="128" height="128"/>
<g clip-path="url(#artboard-9473606804393089583)">
	<g>
		<path d="M64.00000000000016,128.00000000000102 L72.2822094432809,94.9096264412509 L96.00000000000047,119.42562584220502 L86.6274169979699,86.62741699797014 L119.4256258422048,96.00000000000071 L94.90962644125065,72.28220944328115 L128.0000000000008,64.0000000000004 L94.90962644125067,55.717790556719656 L119.42562584220481,32.00000000000009 L86.62741699796992,41.37258300203065 L96.00000000000051,8.57437415779578 L72.28220944328092,33.09037355874991 L64.00000000000017,-0.00000000000024158453015843406 L55.71779055671942,33.0903735587499 L31.999999999999844,8.574374157795773 L41.372583002030424,41.37258300203064 L8.574374157795525,32.000000000000064 L33.09037355874966,55.71779055671963 L-0.0000000000004973799150320701,64.00000000000038 L33.09037355874965,72.28220944328113 L8.574374157795482,96.00000000000068 L41.372583002030396,86.62741699797014 L31.999999999999787,119.42562584220502 L55.71779055671938,94.90962644125088 L64.00000000000016,128.00000000000102 Z" fill="#ffffff"/>
	</g>
</g></g></svg>